# xmcd
#
# Track frame offsets:
#	150
#	10451
#	24012
#	35303
#	46417
#	57673
#	70023
#	87920
#	97501
#	108823
#	120486
#
# Disc length: 1775 seconds
#
# Revision: 1
# Processed by: cddbd v1.5.2PL0 Copyright (c) Steve Scherf et al.
# Submitted via: audiograbber 1.83.01
#
DISCID=7806ed0b
DTITLE=David Houston - Already It's Heaven
DYEAR=1968
DGENRE=Country
TTITLE0=Have A Little Faith
TTITLE1=Gentle On My Mind
TTITLE2=Release Me
TTITLE3=I Love You So Much It Hurts
TTITLE4=Just A Little Lovin' (Will Go A Long Way)
TTITLE5=Already It's Heaven
TTITLE6=Honey (I Miss You)
TTITLE7=Mental Journey
TTITLE8=I Love A Rainbow
TTITLE9=Laura (What's He Got That I Ain't Got?)
TTITLE10=By The Time I Get To Phoenix
EXTD=
EXTT0=
EXTT1=
EXTT2=
EXTT3=
EXTT4=
EXTT5=
EXTT6=
EXTT7=
EXTT8=
EXTT9=
EXTT10=
PLAYORDER=
